<svg xmlns="http://www.w3.org/2000/svg" viewBox="0 0 1600 900">
<defs><linearGradient id="g2" x1="0" y1="0" x2="1" y2="1"><stop offset="0" stop-color="#e0f9db"/><stop offset="1" stop-color="#ffe2b8"/></linearGradient></defs>
<rect width="1600" height="900" fill="url(#g2)"/>
<g transform="translate(120,180)"><rect x="0" y="140" width="460" height="380" rx="28" fill="#fff" stroke="#cce7c5"/><rect x="70" y="60" width="320" height="150" rx="20" fill="#fff7e9" stroke="#efd4a8"/>
<ellipse cx="120" cy="320" rx="50" ry="70" fill="#ffd24a"/><ellipse cx="220" cy="325" rx="50" ry="70" fill="#ffb63b"/><circle cx="330" cy="325" r="58" fill="#ff6a58"/><ellipse cx="330" cy="410" rx="120" ry="26" fill="#000" opacity=".1"/></g>
<g transform="translate(700,160)"><rect x="0" y="80" width="180" height="420" rx="22" fill="#fff" stroke="#d4e9ce"/><rect x="230" y="140" width="180" height="360" rx="22" fill="#fff" stroke="#d4e9ce"/><rect x="460" y="110" width="180" height="390" rx="22" fill="#fff" stroke="#d4e9ce"/>
<ellipse cx="90" cy="520" rx="66" ry="18" fill="#000" opacity=".08"/><ellipse cx="320" cy="520" rx="66" ry="18" fill="#000" opacity=".08"/><ellipse cx="550" cy="520" rx="66" ry="18" fill="#000" opacity=".08"/></g>
</svg>
