<svg xmlns="http://www.w3.org/2000/svg" viewBox="0 0 1600 900">
<defs><linearGradient id="g" x1="0" y1="0" x2="1" y2="1"><stop offset="0" stop-color="#d5f8d5"/><stop offset="1" stop-color="#fff1cc"/></linearGradient></defs>
<rect width="1600" height="900" fill="url(#g)"/>
<circle cx="220" cy="210" r="120" fill="#ffb347" opacity=".35"/><circle cx="500" cy="160" r="80" fill="#86d37a" opacity=".35"/>
<g transform="translate(130,280)"><rect x="0" y="190" width="620" height="250" rx="26" fill="#f8fef5" stroke="#b9e0b3"/><rect x="70" y="80" width="420" height="180" rx="20" fill="#ffffff" stroke="#cde8c8"/>
<circle cx="120" cy="360" r="46" fill="#7dbf69"/><circle cx="470" cy="360" r="46" fill="#7dbf69"/>
<circle cx="200" cy="130" r="38" fill="#ff6b57"/><ellipse cx="290" cy="130" rx="34" ry="44" fill="#ffa22b"/><ellipse cx="370" cy="130" rx="28" ry="44" fill="#ffd84d"/></g>
<g transform="translate(760,190)"><rect x="0" y="120" width="240" height="320" rx="20" fill="#fff" stroke="#d6e9d1"/><rect x="270" y="170" width="240" height="270" rx="20" fill="#fff" stroke="#d6e9d1"/>
<rect x="22" y="160" width="196" height="220" fill="#f7faf7"/><rect x="292" y="210" width="196" height="170" fill="#f7faf7"/>
<ellipse cx="120" cy="450" rx="82" ry="20" fill="#000" opacity=".08"/><ellipse cx="390" cy="450" rx="82" ry="20" fill="#000" opacity=".08"/></g>
</svg>
